<svg width="24" height="24" viewBox="0 0 24 24" fill="none" xmlns="http://www.w3.org/2000/svg">
<path d="M20.4 10.2V19.6499C20.4 20.3955 19.5643 20.9999 18.5333 20.9999H5.46667C4.43574 20.9999 3.60001 20.3955 3.60001 19.6499V10.2" stroke="#464162" stroke-width="2" stroke-linecap="round" stroke-linejoin="round"/>
<path d="M18.9035 2.17128C19.3164 2.41851 19.5993 2.76589 19.7026 3.15261L21.6 10.2L2.4 10.1999L4.20706 3.15261C4.31034 2.76589 4.59322 2.41851 5.00617 2.17128C5.41913 1.92404 5.93585 1.79271 6.46589 1.80026L17.4438 1.80026C17.9738 1.79271 18.4905 1.92404 18.9035 2.17128Z" stroke="#464162" stroke-width="2" stroke-linecap="round" stroke-linejoin="round"/>
<path d="M8.99999 15L8.99999 14C8.73478 14 8.48042 14.1054 8.29289 14.2929C8.10535 14.4804 7.99999 14.7348 7.99999 15L8.99999 15ZM7.99999 20.4C7.99999 20.9523 8.44771 21.4 8.99999 21.4C9.55228 21.4 9.99999 20.9523 9.99999 20.4L7.99999 20.4ZM14.4 15L15.4 15C15.4 14.4477 14.9523 14 14.4 14L14.4 15ZM13.4 20.4C13.4 20.9523 13.8477 21.4 14.4 21.4C14.9523 21.4 15.4 20.9523 15.4 20.4L13.4 20.4ZM7.99999 15L7.99999 20.4L9.99999 20.4L9.99999 15L7.99999 15ZM8.99999 16L14.4 16L14.4 14L8.99999 14L8.99999 16ZM13.4 15L13.4 20.4L15.4 20.4L15.4 15L13.4 15Z" fill="#464162"/>
<line x1="11.8" y1="2.80005" x2="11.8" y2="9.20005" stroke="#464162" stroke-width="2" stroke-linecap="round" stroke-linejoin="round"/>
<line x1="8.40526" y1="2.41821" x2="6.61827" y2="9.33862" stroke="#464162" stroke-width="2" stroke-linecap="round" stroke-linejoin="round"/>
<line x1="1" y1="-1" x2="8.14741" y2="-1" transform="matrix(0.25002 0.968241 0.968241 -0.25002 16.2 1.19995)" stroke="#464162" stroke-width="2" stroke-linecap="round" stroke-linejoin="round"/>
</svg>
